<svg xmlns="http://www.w3.org/2000/svg" width="900" height="480" viewBox="0 0 900 480">
  <defs>
    <linearGradient id="bg" x1="0" y1="0" x2="0" y2="1"><stop offset="0%" stop-color="#0e0e1c"/><stop offset="100%" stop-color="#08080f"/></linearGradient>
  </defs>
  <!-- Background -->
  <rect width="900" height="480" rx="14" fill="url(#bg)" stroke="rgba(255,255,255,0.06)"/>
  <!-- Header -->
  <rect x="0" y="0" width="900" height="52" rx="14" fill="#0e0e1c"/>
  <rect x="0" y="14" width="900" height="38" fill="#0e0e1c"/>
  <text x="20" y="32" font-family="sans-serif" font-size="16" fill="#e2e8f0" font-weight="700">Project Board</text>
  <line x1="0" y1="52" x2="900" y2="52" stroke="rgba(255,255,255,0.06)"/>
  <!-- Progress bar -->
  <rect x="20" y="38" width="200" height="4" rx="2" fill="rgba(255,255,255,0.06)"/>
  <rect x="20" y="38" width="60" height="4" rx="2" fill="#10b981"/>
  <text x="230" y="44" font-family="sans-serif" font-size="9" fill="#94a3b8">2 / 7 done</text>
  <!-- Column 1: To Do -->
  <rect x="16" y="62" width="210" height="402" rx="12" fill="rgba(255,255,255,0.02)" stroke="rgba(255,255,255,0.04)"/>
  <circle cx="32" cy="80" r="5" fill="#6366f1"/>
  <text x="44" y="84" font-family="sans-serif" font-size="13" fill="#e2e8f0" font-weight="600">To Do</text>
  <rect x="170" y="72" width="20" height="16" rx="8" fill="rgba(99,102,241,0.15)"/>
  <text x="180" y="84" font-family="sans-serif" font-size="9" fill="#818cf8" text-anchor="middle">3</text>
  <text x="200" y="84" font-family="sans-serif" font-size="12" fill="#475569">+</text>
  <!-- Card 1 -->
  <rect x="26" y="100" width="190" height="80" rx="10" fill="rgba(255,255,255,0.03)" stroke="rgba(255,255,255,0.06)"/>
  <text x="36" y="120" font-family="sans-serif" font-size="11" fill="#e2e8f0">Write integration tests</text>
  <rect x="36" y="130" width="28" height="14" rx="4" fill="rgba(99,102,241,0.12)"/>
  <text x="50" y="140" font-family="sans-serif" font-size="8" fill="#818cf8" text-anchor="middle">Dev</text>
  <rect x="68" y="130" width="30" height="14" rx="4" fill="rgba(239,68,68,0.12)"/>
  <text x="83" y="140" font-family="sans-serif" font-size="8" fill="#ef4444" text-anchor="middle">high</text>
  <rect x="36" y="153" width="170" height="3" rx="1" fill="rgba(255,255,255,0.04)"/>
  <text x="36" y="170" font-family="sans-serif" font-size="8" fill="#475569">⋮⋮⋮ drag to move</text>
  <!-- Card 2 -->
  <rect x="26" y="190" width="190" height="80" rx="10" fill="rgba(255,255,255,0.03)" stroke="rgba(255,255,255,0.06)"/>
  <text x="36" y="210" font-family="sans-serif" font-size="11" fill="#e2e8f0">Update API docs</text>
  <rect x="36" y="220" width="32" height="14" rx="4" fill="rgba(34,211,238,0.12)"/>
  <text x="52" y="230" font-family="sans-serif" font-size="8" fill="#22d3ee" text-anchor="middle">Docs</text>
  <rect x="72" y="220" width="24" height="14" rx="4" fill="rgba(34,211,238,0.12)"/>
  <text x="84" y="230" font-family="sans-serif" font-size="8" fill="#22d3ee" text-anchor="middle">low</text>
  <!-- Card 3 -->
  <rect x="26" y="280" width="190" height="80" rx="10" fill="rgba(255,255,255,0.03)" stroke="rgba(255,255,255,0.06)"/>
  <text x="36" y="300" font-family="sans-serif" font-size="11" fill="#e2e8f0">Design landing page</text>
  <rect x="36" y="310" width="42" height="14" rx="4" fill="rgba(236,72,153,0.12)"/>
  <text x="57" y="320" font-family="sans-serif" font-size="8" fill="#ec4899" text-anchor="middle">Design</text>
  <rect x="82" y="310" width="36" height="14" rx="4" fill="rgba(245,158,11,0.12)"/>
  <text x="100" y="320" font-family="sans-serif" font-size="8" fill="#f59e0b" text-anchor="middle">medium</text>
  <!-- Column 2: In Progress -->
  <rect x="236" y="62" width="210" height="402" rx="12" fill="rgba(255,255,255,0.02)" stroke="rgba(255,255,255,0.04)"/>
  <circle cx="252" cy="80" r="5" fill="#f59e0b"/>
  <text x="264" y="84" font-family="sans-serif" font-size="13" fill="#e2e8f0" font-weight="600">In Progress</text>
  <rect x="390" y="72" width="20" height="16" rx="8" fill="rgba(245,158,11,0.15)"/>
  <text x="400" y="84" font-family="sans-serif" font-size="9" fill="#f59e0b" text-anchor="middle">2</text>
  <text x="420" y="84" font-family="sans-serif" font-size="12" fill="#475569">+</text>
  <!-- Card -->
  <rect x="246" y="100" width="190" height="80" rx="10" fill="rgba(245,158,11,0.04)" stroke="rgba(245,158,11,0.15)"/>
  <text x="256" y="120" font-family="sans-serif" font-size="11" fill="#e2e8f0">Build auth flow</text>
  <rect x="256" y="130" width="28" height="14" rx="4" fill="rgba(99,102,241,0.12)"/>
  <text x="270" y="140" font-family="sans-serif" font-size="8" fill="#818cf8" text-anchor="middle">Dev</text>
  <rect x="288" y="130" width="30" height="14" rx="4" fill="rgba(239,68,68,0.12)"/>
  <text x="303" y="140" font-family="sans-serif" font-size="8" fill="#ef4444" text-anchor="middle">high</text>
  <!-- Card -->
  <rect x="246" y="190" width="190" height="80" rx="10" fill="rgba(255,255,255,0.03)" stroke="rgba(255,255,255,0.06)"/>
  <text x="256" y="210" font-family="sans-serif" font-size="11" fill="#e2e8f0">Refactor DB schema</text>
  <rect x="256" y="220" width="28" height="14" rx="4" fill="rgba(99,102,241,0.12)"/>
  <text x="270" y="230" font-family="sans-serif" font-size="8" fill="#818cf8" text-anchor="middle">Dev</text>
  <rect x="288" y="220" width="36" height="14" rx="4" fill="rgba(245,158,11,0.12)"/>
  <text x="306" y="230" font-family="sans-serif" font-size="8" fill="#f59e0b" text-anchor="middle">medium</text>
  <!-- Column 3: Review -->
  <rect x="456" y="62" width="210" height="402" rx="12" fill="rgba(255,255,255,0.02)" stroke="rgba(255,255,255,0.04)"/>
  <circle cx="472" cy="80" r="5" fill="#a78bfa"/>
  <text x="484" y="84" font-family="sans-serif" font-size="13" fill="#e2e8f0" font-weight="600">Review</text>
  <rect x="610" y="72" width="20" height="16" rx="8" fill="rgba(167,139,250,0.15)"/>
  <text x="620" y="84" font-family="sans-serif" font-size="9" fill="#a78bfa" text-anchor="middle">0</text>
  <text x="640" y="84" font-family="sans-serif" font-size="12" fill="#475569">+</text>
  <text x="561" y="260" font-family="sans-serif" font-size="10" fill="rgba(255,255,255,0.1)" text-anchor="middle">Drop cards here</text>
  <!-- Column 4: Done -->
  <rect x="676" y="62" width="210" height="402" rx="12" fill="rgba(255,255,255,0.02)" stroke="rgba(255,255,255,0.04)"/>
  <circle cx="692" cy="80" r="5" fill="#10b981"/>
  <text x="704" y="84" font-family="sans-serif" font-size="13" fill="#e2e8f0" font-weight="600">Done</text>
  <rect x="830" y="72" width="20" height="16" rx="8" fill="rgba(16,185,129,0.15)"/>
  <text x="840" y="84" font-family="sans-serif" font-size="9" fill="#10b981" text-anchor="middle">2</text>
  <text x="860" y="84" font-family="sans-serif" font-size="12" fill="#475569">+</text>
  <!-- Done cards -->
  <rect x="686" y="100" width="190" height="80" rx="10" fill="rgba(16,185,129,0.04)" stroke="rgba(16,185,129,0.12)"/>
  <text x="696" y="120" font-family="sans-serif" font-size="11" fill="#e2e8f0">Set up CI pipeline</text>
  <rect x="696" y="130" width="36" height="14" rx="4" fill="rgba(99,102,241,0.12)"/>
  <text x="714" y="140" font-family="sans-serif" font-size="8" fill="#818cf8" text-anchor="middle">DevOps</text>
  <rect x="696" y="153" width="170" height="3" rx="1" fill="#10b981" opacity="0.3"/>
  <rect x="686" y="190" width="190" height="80" rx="10" fill="rgba(16,185,129,0.04)" stroke="rgba(16,185,129,0.12)"/>
  <text x="696" y="210" font-family="sans-serif" font-size="11" fill="#e2e8f0">Create wireframes</text>
  <rect x="696" y="220" width="42" height="14" rx="4" fill="rgba(236,72,153,0.12)"/>
  <text x="717" y="230" font-family="sans-serif" font-size="8" fill="#ec4899" text-anchor="middle">Design</text>
  <!-- Footer hint -->
  <text x="450" y="470" font-family="sans-serif" font-size="8" fill="rgba(255,255,255,0.15)" text-anchor="middle">Drag cards between columns · Click to edit · Tags and priorities auto-color</text>
</svg>
