<svg xmlns="http://www.w3.org/2000/svg" viewBox="0 0 1100 620" width="1100" height="620">
  <defs>
    <radialGradient id="glow1" cx="20%" cy="20%" r="50%"><stop offset="0%" stop-color="rgba(99,102,241,0.08)"/><stop offset="100%" stop-color="transparent"/></radialGradient>
    <radialGradient id="glow2" cx="80%" cy="80%" r="50%"><stop offset="0%" stop-color="rgba(139,92,246,0.06)"/><stop offset="100%" stop-color="transparent"/></radialGradient>
  </defs>
  <!-- Background -->
  <rect width="1100" height="620" rx="12" fill="#0f0f1a"/>
  <rect width="1100" height="620" rx="12" fill="url(#glow1)"/>
  <rect width="1100" height="620" rx="12" fill="url(#glow2)"/>

  <!-- Header -->
  <text x="32" y="40" font-family="monospace" font-size="10" fill="#6366f1" letter-spacing="0.2em">KANBAN BOARD</text>
  <text x="32" y="64" font-family="monospace" font-size="22" fill="#f1f5f9" font-weight="bold">Project Flow</text>
  <!-- Column dots with counts -->
  <circle cx="36" cy="82" r="3" fill="#6366f1"/><text x="44" y="85" font-family="monospace" font-size="10" fill="#475569">3</text>
  <circle cx="66" cy="82" r="3" fill="#f59e0b"/><text x="74" y="85" font-family="monospace" font-size="10" fill="#475569">2</text>
  <circle cx="96" cy="82" r="3" fill="#8b5cf6"/><text x="104" y="85" font-family="monospace" font-size="10" fill="#475569">1</text>
  <circle cx="126" cy="82" r="3" fill="#10b981"/><text x="134" y="85" font-family="monospace" font-size="10" fill="#475569">2</text>

  <!-- Progress (right) -->
  <text x="930" y="42" font-family="monospace" font-size="10" fill="#475569" text-anchor="end">2/8 DONE</text>
  <rect x="810" y="48" width="120" height="3" rx="1.5" fill="rgba(255,255,255,0.08)"/>
  <rect x="810" y="48" width="30" height="3" rx="1.5" fill="#10b981"/>
  <rect x="940" y="32" width="120" height="28" rx="8" fill="rgba(255,255,255,0.05)" stroke="rgba(255,255,255,0.1)"/>
  <text x="1000" y="50" font-family="monospace" font-size="10" fill="#64748b" text-anchor="middle">EXPORT STATE</text>

  <!-- ===== Column 1: Backlog ===== -->
  <rect x="32" y="100" width="250" height="490" rx="14" fill="rgba(255,255,255,0.025)" stroke="rgba(255,255,255,0.06)"/>
  <line x1="32" y1="140" x2="282" y2="140" stroke="rgba(255,255,255,0.06)"/>
  <circle cx="50" cy="120" r="4" fill="#6366f1"/>
  <text x="62" y="124" font-family="monospace" font-size="11" fill="#cbd5e1" letter-spacing="0.1em">BACKLOG</text>
  <rect x="232" y="112" width="30" height="18" rx="10" fill="rgba(255,255,255,0.05)"/>
  <text x="247" y="124" font-family="monospace" font-size="10" fill="#475569" text-anchor="middle">3</text>

  <!-- Card 1 -->
  <rect x="42" y="150" width="230" height="72" rx="10" fill="rgba(255,255,255,0.04)" stroke="rgba(255,255,255,0.07)"/>
  <text x="56" y="172" font-family="sans-serif" font-size="13.5" fill="#e2e8f0">Research competitors</text>
  <rect x="56" y="188" width="68" height="20" rx="10" fill="rgba(96,165,250,0.12)"/><text x="90" y="202" font-family="monospace" font-size="11" fill="#60a5fa" text-anchor="middle">Research</text>
  <rect x="196" y="188" width="36" height="20" rx="10" fill="rgba(107,114,128,0.12)"/><text x="214" y="202" font-family="monospace" font-size="10" fill="#6b7280" text-anchor="middle">low</text>

  <!-- Card 2 -->
  <rect x="42" y="230" width="230" height="72" rx="10" fill="rgba(255,255,255,0.04)" stroke="rgba(255,255,255,0.07)"/>
  <text x="56" y="252" font-family="sans-serif" font-size="13.5" fill="#e2e8f0">Define MVP scope</text>
  <rect x="56" y="268" width="68" height="20" rx="10" fill="rgba(167,139,250,0.12)"/><text x="90" y="282" font-family="monospace" font-size="11" fill="#a78bfa" text-anchor="middle">Strategy</text>
  <rect x="196" y="268" width="42" height="20" rx="10" fill="rgba(239,68,68,0.12)"/><text x="217" y="282" font-family="monospace" font-size="10" fill="#ef4444" text-anchor="middle">high</text>

  <!-- Card 3 -->
  <rect x="42" y="310" width="230" height="72" rx="10" fill="rgba(255,255,255,0.04)" stroke="rgba(255,255,255,0.07)"/>
  <text x="56" y="332" font-family="sans-serif" font-size="13.5" fill="#e2e8f0">Set up design system</text>
  <rect x="56" y="348" width="58" height="20" rx="10" fill="rgba(244,114,182,0.12)"/><text x="85" y="362" font-family="monospace" font-size="11" fill="#f472b6" text-anchor="middle">Design</text>
  <rect x="185" y="348" width="52" height="20" rx="10" fill="rgba(245,158,11,0.12)"/><text x="211" y="362" font-family="monospace" font-size="10" fill="#f59e0b" text-anchor="middle">med</text>

  <rect x="42" y="392" width="230" height="32" rx="8" fill="none" stroke="rgba(255,255,255,0.1)" stroke-dasharray="4 3"/>
  <text x="157" y="413" font-family="monospace" font-size="11" fill="#475569" text-anchor="middle">+ ADD CARD</text>

  <!-- ===== Column 2: In Progress ===== -->
  <rect x="296" y="100" width="250" height="490" rx="14" fill="rgba(255,255,255,0.025)" stroke="rgba(255,255,255,0.06)"/>
  <line x1="296" y1="140" x2="546" y2="140" stroke="rgba(255,255,255,0.06)"/>
  <circle cx="314" cy="120" r="4" fill="#f59e0b"/>
  <text x="326" y="124" font-family="monospace" font-size="11" fill="#cbd5e1" letter-spacing="0.1em">IN PROGRESS</text>
  <rect x="496" y="112" width="30" height="18" rx="10" fill="rgba(255,255,255,0.05)"/>
  <text x="511" y="124" font-family="monospace" font-size="10" fill="#475569" text-anchor="middle">2</text>

  <rect x="306" y="150" width="230" height="72" rx="10" fill="rgba(255,255,255,0.04)" stroke="rgba(255,255,255,0.07)"/>
  <text x="320" y="172" font-family="sans-serif" font-size="13.5" fill="#e2e8f0">Build auth flow</text>
  <rect x="320" y="188" width="42" height="20" rx="10" fill="rgba(52,211,153,0.12)"/><text x="341" y="202" font-family="monospace" font-size="11" fill="#34d399" text-anchor="middle">Dev</text>
  <rect x="460" y="188" width="42" height="20" rx="10" fill="rgba(239,68,68,0.12)"/><text x="481" y="202" font-family="monospace" font-size="10" fill="#ef4444" text-anchor="middle">high</text>

  <rect x="306" y="230" width="230" height="72" rx="10" fill="rgba(255,255,255,0.04)" stroke="rgba(255,255,255,0.07)"/>
  <text x="320" y="252" font-family="sans-serif" font-size="13.5" fill="#e2e8f0">Write API docs</text>
  <rect x="320" y="268" width="46" height="20" rx="10" fill="rgba(251,191,36,0.12)"/><text x="343" y="282" font-family="monospace" font-size="11" fill="#fbbf24" text-anchor="middle">Docs</text>
  <rect x="453" y="268" width="52" height="20" rx="10" fill="rgba(245,158,11,0.12)"/><text x="479" y="282" font-family="monospace" font-size="10" fill="#f59e0b" text-anchor="middle">med</text>

  <rect x="306" y="312" width="230" height="32" rx="8" fill="none" stroke="rgba(255,255,255,0.1)" stroke-dasharray="4 3"/>
  <text x="421" y="333" font-family="monospace" font-size="11" fill="#475569" text-anchor="middle">+ ADD CARD</text>

  <!-- ===== Column 3: In Review ===== -->
  <rect x="560" y="100" width="250" height="490" rx="14" fill="rgba(255,255,255,0.025)" stroke="rgba(255,255,255,0.06)"/>
  <line x1="560" y1="140" x2="810" y2="140" stroke="rgba(255,255,255,0.06)"/>
  <circle cx="578" cy="120" r="4" fill="#8b5cf6"/>
  <text x="590" y="124" font-family="monospace" font-size="11" fill="#cbd5e1" letter-spacing="0.1em">IN REVIEW</text>
  <rect x="760" y="112" width="30" height="18" rx="10" fill="rgba(255,255,255,0.05)"/>
  <text x="775" y="124" font-family="monospace" font-size="10" fill="#475569" text-anchor="middle">1</text>

  <rect x="570" y="150" width="230" height="72" rx="10" fill="rgba(255,255,255,0.04)" stroke="rgba(255,255,255,0.07)"/>
  <text x="584" y="172" font-family="sans-serif" font-size="13.5" fill="#e2e8f0">Landing page redesign</text>
  <rect x="584" y="188" width="58" height="20" rx="10" fill="rgba(244,114,182,0.12)"/><text x="613" y="202" font-family="monospace" font-size="11" fill="#f472b6" text-anchor="middle">Design</text>
  <rect x="724" y="188" width="42" height="20" rx="10" fill="rgba(239,68,68,0.12)"/><text x="745" y="202" font-family="monospace" font-size="10" fill="#ef4444" text-anchor="middle">high</text>

  <rect x="570" y="232" width="230" height="32" rx="8" fill="none" stroke="rgba(255,255,255,0.1)" stroke-dasharray="4 3"/>
  <text x="685" y="253" font-family="monospace" font-size="11" fill="#475569" text-anchor="middle">+ ADD CARD</text>

  <!-- ===== Column 4: Done ===== -->
  <rect x="824" y="100" width="250" height="490" rx="14" fill="rgba(255,255,255,0.025)" stroke="rgba(255,255,255,0.06)"/>
  <line x1="824" y1="140" x2="1074" y2="140" stroke="rgba(255,255,255,0.06)"/>
  <circle cx="842" cy="120" r="4" fill="#10b981"/>
  <text x="854" y="124" font-family="monospace" font-size="11" fill="#cbd5e1" letter-spacing="0.1em">DONE</text>
  <rect x="1024" y="112" width="30" height="18" rx="10" fill="rgba(255,255,255,0.05)"/>
  <text x="1039" y="124" font-family="monospace" font-size="10" fill="#475569" text-anchor="middle">2</text>

  <rect x="834" y="150" width="230" height="72" rx="10" fill="rgba(255,255,255,0.04)" stroke="rgba(255,255,255,0.07)"/>
  <text x="848" y="172" font-family="sans-serif" font-size="13.5" fill="#e2e8f0">Project kickoff</text>
  <rect x="848" y="188" width="68" height="20" rx="10" fill="rgba(148,163,184,0.12)"/><text x="882" y="202" font-family="monospace" font-size="11" fill="#94a3b8" text-anchor="middle">Planning</text>
  <rect x="988" y="188" width="36" height="20" rx="10" fill="rgba(107,114,128,0.12)"/><text x="1006" y="202" font-family="monospace" font-size="10" fill="#6b7280" text-anchor="middle">low</text>

  <rect x="834" y="230" width="230" height="72" rx="10" fill="rgba(255,255,255,0.04)" stroke="rgba(255,255,255,0.07)"/>
  <text x="848" y="252" font-family="sans-serif" font-size="13.5" fill="#e2e8f0">Stakeholder interviews</text>
  <rect x="848" y="268" width="68" height="20" rx="10" fill="rgba(96,165,250,0.12)"/><text x="882" y="282" font-family="monospace" font-size="11" fill="#60a5fa" text-anchor="middle">Research</text>
  <rect x="981" y="268" width="52" height="20" rx="10" fill="rgba(245,158,11,0.12)"/><text x="1007" y="282" font-family="monospace" font-size="10" fill="#f59e0b" text-anchor="middle">med</text>

  <rect x="834" y="312" width="230" height="32" rx="8" fill="none" stroke="rgba(255,255,255,0.1)" stroke-dasharray="4 3"/>
  <text x="949" y="333" font-family="monospace" font-size="11" fill="#475569" text-anchor="middle">+ ADD CARD</text>
</svg>